FFmpeg version SVN-r25716, Copyright (c) 2000-2010 the FFmpeg developers  built on Nov 10 2010 12:23:18 with gcc 4.1.2 20080704 (Red Hat 4.1.2-48)  configuration: --enable-libmp3lame --enable-shared --disable-mmx --arch=x86_64  libavutil     50.33. 0 / 50.33. 0  libavcore      0.12. 1 /  0.12. 1  libavcodec    52.94. 4 / 52.94. 4  libavformat   52.84. 0 / 52.84. 0  libavdevice   52. 2. 2 / 52. 2. 2  libavfilter    1.59. 0 /  1.59. 0  libswscale     0.12. 0 /  0.12. 0[mov,mp4,m4a,3gp,3g2,mj2 @ 0x1eccc4c0] max_analyze_duration reachedInput #0, mov,mp4,m4a,3gp,3g2,mj2, from '/RAID10/data/converted_video_files/11813.mov':  Duration: 00:00:05.71, bitrate: 1244 kb/s    Stream #0.0(eng): Video: svq1, yuv410p, 310x389, 1243 kb/s, 8.57 fps, 60 tbr, 60 tbn, 60 tbc[buffer @ 0x1ecd5400] w:310 h:389 pixfmt:yuv410p[ffsink @ 0x1eced800] auto-inserting filter 'auto-inserted scaler 0' between the filter 'src' and the filter 'out'[scale @ 0x1ecedb20] w:310 h:389 fmt:yuv410p -> w:310 h:389 fmt:yuv420p flags:0x4Output #0, flv, to '/RAID10/data/converted_video_files/11813.flv':  Metadata:    encoder         : Lavf52.84.0    Stream #0.0(eng): Video: flv, yuv420p, 310x389, q=2-31, 600 kb/s, 1k tbn, 24 tbcStream mapping:  Stream #0.0 -> #0.0Press [q] to stop encodingframe=   49 fps=  0 q=5.8 Lsize=     313kB time=5.62 bitrate= 456.4kbits/s    video:312kB audio:0kB global headers:0kB muxing overhead 0.310695%